<?xml version="1.0" encoding="UTF-8"?>
<svg xmlns="http://www.w3.org/2000/svg" viewBox="0 0 400 400">
  <!-- Main Shield Shape -->
  <path d="M120 120 L280 120 L290 130 L290 270 L200 300 L110 270 L110 130 Z" 
        fill="#1a1a1a" stroke="#000000" stroke-width="8"/>
  
  <!-- Anvil -->
  <path d="M140 240 L260 240 L280 280 L120 280 Z" 
        fill="#333333" stroke="#000000" stroke-width="6"/>
  
  <!-- First F -->
  <path d="M150 150 L150 250" 
        fill="none" stroke="#ffffff" stroke-width="18" stroke-linecap="square"/>
  <path d="M150 150 L185 150" 
        fill="none" stroke="#ffffff" stroke-width="18" stroke-linecap="square"/>
  <path d="M150 190 L180 190" 
        fill="none" stroke="#ffffff" stroke-width="18" stroke-linecap="square"/>
        
  <!-- Connecting piece -->
  <path d="M185 150 L215 150" 
        fill="none" stroke="#ffffff" stroke-width="18" stroke-linecap="square"/>
        
  <!-- Second F -->
  <path d="M215 150 L250 150" 
        fill="none" stroke="#ffffff" stroke-width="18" stroke-linecap="square"/>
  <path d="M215 150 L215 250" 
        fill="none" stroke="#ffffff" stroke-width="18" stroke-linecap="square"/>
  <path d="M215 190 L245 190" 
        fill="none" stroke="#ffffff" stroke-width="18" stroke-linecap="square"/>
  
  <!-- Rivets -->
  <circle cx="120" cy="130" r="6" fill="#333333" stroke="#000000" stroke-width="2"/>
  <circle cx="280" cy="130" r="6" fill="#333333" stroke="#000000" stroke-width="2"/>
  <circle cx="120" cy="270" r="6" fill="#333333" stroke="#000000" stroke-width="2"/>
  <circle cx="280" cy="270" r="6" fill="#333333" stroke="#000000" stroke-width="2"/>
</svg> 